# Blender 4.4.3
# www.blender.org
o Plane
v -1.390598 0.009849 4.655849
v 0.609402 0.009849 4.655849
v -1.376225 0.009849 2.771207
v 0.622492 0.009849 2.799496
v -1.242460 0.009849 0.877651
v 0.746406 0.009849 1.060437
v -0.944476 0.009849 -1.059146
v 1.029478 0.009849 -0.754718
v -0.551859 0.009849 -2.877295
v 1.439878 0.009849 -2.739834
v -0.383276 0.009849 -4.705296
v 1.615696 0.009849 -4.723186
v -1.388091 0.009849 3.224203
v -1.393484 0.009849 3.680671
v -1.393840 0.009849 4.153568
v -0.890598 0.009849 4.655849
v -0.390598 0.009849 4.655849
v 0.109402 0.009849 4.655849
v 0.606160 0.009849 4.153568
v 0.606388 0.009849 3.683500
v 0.611396 0.009849 3.235519
v 0.122812 0.009849 2.792424
v -0.376867 0.009849 2.785352
v -0.876546 0.009849 2.778279
v 0.249190 0.009849 1.014741
v -0.248027 0.009849 0.969044
v -0.745243 0.009849 0.923348
v -1.290286 0.009849 1.360620
v -1.328043 0.009849 1.838087
v -1.356449 0.009849 2.308726
v 0.640985 0.009849 2.365305
v 0.667431 0.009849 1.931616
v 0.702386 0.009849 1.497103
v 0.535989 0.009849 -0.830825
v 0.042501 0.009849 -0.906932
v -0.450988 0.009849 -0.983039
v -1.034730 0.009849 -0.581571
v -1.114560 0.009849 -0.097126
v -1.183844 0.009849 0.390509
v 0.800046 0.009849 0.620291
v 0.864386 0.009849 0.173296
v 0.940504 0.009849 -0.283917
v 0.941944 0.009849 -2.774199
v 0.444009 0.009849 -2.808564
v -0.053925 0.009849 -2.842930
v -0.640469 0.009849 -2.433907
v -0.740203 0.009849 -1.983976
v -0.843920 0.009849 -1.526169
v 1.132386 0.009849 -1.242475
v 1.240745 0.009849 -1.740423
v 1.346071 0.009849 -2.241797
v 1.115953 0.009849 -4.718713
v 0.616210 0.009849 -4.714241
v 0.116467 0.009849 -4.709768
v -0.396905 0.009849 -4.218829
v -0.429759 0.009849 -3.759107
v -0.481516 0.009849 -3.315478
v 1.513682 0.009849 -3.227767
v 1.567546 0.009849 -3.714820
v 1.601530 0.009849 -4.210218
v -0.893840 0.009849 4.153568
v -0.393840 0.009849 4.153568
v 0.106160 0.009849 4.153568
v -0.893516 0.009849 3.681379
v -0.393548 0.009849 3.682086
v 0.106420 0.009849 3.682793
v -0.888219 0.009849 3.227032
v -0.388348 0.009849 3.229861
v 0.111524 0.009849 3.232690
v -0.857091 0.009849 2.322870
v -0.357732 0.009849 2.337015
v 0.141626 0.009849 2.351160
v -0.829174 0.009849 1.861470
v -0.330306 0.009849 1.884852
v 0.168562 0.009849 1.908234
v -0.792118 0.009849 1.394741
v -0.293950 0.009849 1.428861
v 0.204218 0.009849 1.462982
v -0.687871 0.009849 0.447954
v -0.191899 0.009849 0.505400
v 0.304074 0.009849 0.562846
v -0.619823 0.009849 -0.029520
v -0.125087 0.009849 0.038085
v 0.369650 0.009849 0.105690
v -0.540922 0.009849 -0.507158
v -0.047113 0.009849 -0.432744
v 0.446695 0.009849 -0.358331
v -0.349843 0.009849 -1.455245
v 0.144233 0.009849 -1.384321
v 0.638310 0.009849 -1.313398
v -0.244966 0.009849 -1.923088
v 0.250271 0.009849 -1.862199
v 0.745508 0.009849 -1.801312
v -0.143834 0.009849 -2.385880
v 0.352801 0.009849 -2.337852
v 0.849436 0.009849 -2.289824
v 0.017284 0.009849 -3.293550
v 0.516083 0.009849 -3.271623
v 1.014883 0.009849 -3.249694
v 0.069568 0.009849 -3.748035
v 0.568894 0.009849 -3.736964
v 1.068220 0.009849 -3.725892
v 0.102703 0.009849 -4.216677
v 0.602312 0.009849 -4.214523
v 1.101921 0.009849 -4.212371
vn -0.0000 1.0000 -0.0000
vt 0.942998 0.456988
vt 0.937100 0.508408
vt 0.888610 0.502877
vt 0.894435 0.451452
vt 0.931202 0.559828
vt 0.882785 0.554302
vt 0.842042 0.498077
vt 0.847647 0.446637
vt 0.836436 0.549517
vt 1.000512 0.411827
vt 0.994614 0.463247
vt 0.948896 0.405569
vt 0.988716 0.514667
vt 0.982818 0.566087
vt 0.976920 0.617507
vt 0.925304 0.611248
vt 0.876960 0.605727
vt 0.830830 0.600957
vt 0.785859 0.596955
vt 0.791026 0.545485
vt 0.796193 0.494014
vt 0.801360 0.442544
vt 0.853253 0.395197
vt 0.806527 0.391074
vt 0.900259 0.400027
vt 0.754296 0.439173
vt 0.749860 0.490693
vt 0.703036 0.488180
vt 0.706517 0.436601
vt 0.745425 0.542214
vt 0.699556 0.539759
vt 0.655714 0.486540
vt 0.658081 0.434906
vt 0.653346 0.538174
vt 0.758732 0.387652
vt 0.740989 0.593735
vt 0.696076 0.591339
vt 0.650979 0.589808
vt 0.605553 0.589184
vt 0.606719 0.537511
vt 0.607884 0.485839
vt 0.609050 0.434166
vt 0.660449 0.383272
vt 0.610216 0.382493
vt 0.709997 0.385022
vt 0.559484 0.434458
vt 0.559541 0.486142
vt 0.510695 0.487500
vt 0.509578 0.435824
vt 0.559599 0.537825
vt 0.511811 0.539176
vt 0.461355 0.489965
vt 0.459527 0.438304
vt 0.463183 0.541626
vt 0.559427 0.382775
vt 0.559656 0.589508
vt 0.512928 0.590852
vt 0.465010 0.593287
vt 0.415544 0.596883
vt 0.413538 0.545235
vt 0.411532 0.493587
vt 0.409527 0.441939
vt 0.457700 0.386643
vt 0.407521 0.390291
vt 0.508462 0.384148
vt 0.359772 0.446771
vt 0.361238 0.498418
vt 0.310842 0.503686
vt 0.310422 0.452038
vt 0.362703 0.550066
vt 0.311262 0.555334
vt 0.260717 0.508619
vt 0.261636 0.456979
vt 0.259798 0.560260
vt 0.358307 0.395124
vt 0.364169 0.601713
vt 0.311682 0.606983
vt 0.258878 0.611900
vt 0.206554 0.615672
vt 0.208893 0.564059
vt 0.211233 0.512447
vt 0.213572 0.460834
vt 0.262555 0.405339
vt 0.215912 0.409221
vt 0.310002 0.400389
vt 0.166391 0.462841
vt 0.162762 0.514396
vt 0.114283 0.514338
vt 0.119035 0.462857
vt 0.159133 0.565951
vt 0.109532 0.565819
vt 0.064777 0.512142
vt 0.070449 0.460737
vt 0.059105 0.563547
vt 0.170020 0.411286
vt 0.155504 0.617507
vt 0.104780 0.617301
vt 0.053433 0.614952
vt 0.000512 0.610357
vt 0.006867 0.559017
vt 0.013222 0.507676
vt 0.019577 0.456335
vt 0.076121 0.409332
vt 0.025932 0.404995
vt 0.123786 0.411376
s 1
f 61/1/1 62/2/1 65/3/1 64/4/1
f 62/2/1 63/5/1 66/6/1 65/3/1
f 64/4/1 65/3/1 68/7/1 67/8/1
f 65/3/1 66/6/1 69/9/1 68/7/1
f 1/10/1 16/11/1 61/1/1 15/12/1
f 16/11/1 17/13/1 62/2/1 61/1/1
f 17/13/1 18/14/1 63/5/1 62/2/1
f 18/14/1 2/15/1 19/16/1 63/5/1
f 63/5/1 19/16/1 20/17/1 66/6/1
f 66/6/1 20/17/1 21/18/1 69/9/1
f 69/9/1 21/18/1 4/19/1 22/20/1
f 68/7/1 69/9/1 22/20/1 23/21/1
f 67/8/1 68/7/1 23/21/1 24/22/1
f 13/23/1 67/8/1 24/22/1 3/24/1
f 14/25/1 64/4/1 67/8/1 13/23/1
f 15/12/1 61/1/1 64/4/1 14/25/1
f 70/26/1 71/27/1 74/28/1 73/29/1
f 71/27/1 72/30/1 75/31/1 74/28/1
f 73/29/1 74/28/1 77/32/1 76/33/1
f 74/28/1 75/31/1 78/34/1 77/32/1
f 3/24/1 24/22/1 70/26/1 30/35/1
f 24/22/1 23/21/1 71/27/1 70/26/1
f 23/21/1 22/20/1 72/30/1 71/27/1
f 22/20/1 4/19/1 31/36/1 72/30/1
f 72/30/1 31/36/1 32/37/1 75/31/1
f 75/31/1 32/37/1 33/38/1 78/34/1
f 78/34/1 33/38/1 6/39/1 25/40/1
f 77/32/1 78/34/1 25/40/1 26/41/1
f 76/33/1 77/32/1 26/41/1 27/42/1
f 28/43/1 76/33/1 27/42/1 5/44/1
f 29/45/1 73/29/1 76/33/1 28/43/1
f 30/35/1 70/26/1 73/29/1 29/45/1
f 79/46/1 80/47/1 83/48/1 82/49/1
f 80/47/1 81/50/1 84/51/1 83/48/1
f 82/49/1 83/48/1 86/52/1 85/53/1
f 83/48/1 84/51/1 87/54/1 86/52/1
f 5/44/1 27/42/1 79/46/1 39/55/1
f 27/42/1 26/41/1 80/47/1 79/46/1
f 26/41/1 25/40/1 81/50/1 80/47/1
f 25/40/1 6/39/1 40/56/1 81/50/1
f 81/50/1 40/56/1 41/57/1 84/51/1
f 84/51/1 41/57/1 42/58/1 87/54/1
f 87/54/1 42/58/1 8/59/1 34/60/1
f 86/52/1 87/54/1 34/60/1 35/61/1
f 85/53/1 86/52/1 35/61/1 36/62/1
f 37/63/1 85/53/1 36/62/1 7/64/1
f 38/65/1 82/49/1 85/53/1 37/63/1
f 39/55/1 79/46/1 82/49/1 38/65/1
f 88/66/1 89/67/1 92/68/1 91/69/1
f 89/67/1 90/70/1 93/71/1 92/68/1
f 91/69/1 92/68/1 95/72/1 94/73/1
f 92/68/1 93/71/1 96/74/1 95/72/1
f 7/64/1 36/62/1 88/66/1 48/75/1
f 36/62/1 35/61/1 89/67/1 88/66/1
f 35/61/1 34/60/1 90/70/1 89/67/1
f 34/60/1 8/59/1 49/76/1 90/70/1
f 90/70/1 49/76/1 50/77/1 93/71/1
f 93/71/1 50/77/1 51/78/1 96/74/1
f 96/74/1 51/78/1 10/79/1 43/80/1
f 95/72/1 96/74/1 43/80/1 44/81/1
f 94/73/1 95/72/1 44/81/1 45/82/1
f 46/83/1 94/73/1 45/82/1 9/84/1
f 47/85/1 91/69/1 94/73/1 46/83/1
f 48/75/1 88/66/1 91/69/1 47/85/1
f 97/86/1 98/87/1 101/88/1 100/89/1
f 98/87/1 99/90/1 102/91/1 101/88/1
f 100/89/1 101/88/1 104/92/1 103/93/1
f 101/88/1 102/91/1 105/94/1 104/92/1
f 9/84/1 45/82/1 97/86/1 57/95/1
f 45/82/1 44/81/1 98/87/1 97/86/1
f 44/81/1 43/80/1 99/90/1 98/87/1
f 43/80/1 10/79/1 58/96/1 99/90/1
f 99/90/1 58/96/1 59/97/1 102/91/1
f 102/91/1 59/97/1 60/98/1 105/94/1
f 105/94/1 60/98/1 12/99/1 52/100/1
f 104/92/1 105/94/1 52/100/1 53/101/1
f 103/93/1 104/92/1 53/101/1 54/102/1
f 55/103/1 103/93/1 54/102/1 11/104/1
f 56/105/1 100/89/1 103/93/1 55/103/1
f 57/95/1 97/86/1 100/89/1 56/105/1
