# Blender 4.3.2
# www.blender.org
o Cube
v -4.848555 -0.241496 4.823912
v -4.848555 -0.241496 -4.823912
v -4.580997 -0.241496 4.823912
v -4.580997 1.817170 4.823912
v -4.580997 -0.241496 -4.823912
v -4.580997 1.817170 -4.823912
v -4.969010 -0.264439 4.887368
v -4.969010 0.264439 4.887368
v -4.969010 -0.264439 4.358491
v -4.969010 0.264439 4.358491
v -4.440133 -0.264439 4.887368
v -4.440133 0.264439 4.887368
v -4.440133 -0.264439 4.358491
v -4.440133 0.264439 4.358491
v -4.916897 1.939926 4.835256
v -4.916897 0.038501 4.835256
v -4.916897 1.939926 4.410604
v -4.916897 0.038501 4.410604
v -4.492246 1.939926 4.835256
v -4.492246 0.038501 4.835256
v -4.492246 1.939926 4.410604
v -4.492246 0.038501 4.410604
v -4.969010 -0.255935 -4.373798
v -4.969010 0.272943 -4.373798
v -4.969010 -0.255935 -4.902677
v -4.969010 0.272943 -4.902677
v -4.440133 -0.255935 -4.373798
v -4.440133 0.272943 -4.373798
v -4.440133 -0.255935 -4.902677
v -4.440133 0.272943 -4.902677
v -4.916897 1.948430 -4.425911
v -4.916897 0.047005 -4.425911
v -4.916897 1.948430 -4.850563
v -4.916897 0.047005 -4.850563
v -4.492246 1.948430 -4.425911
v -4.492246 0.047005 -4.425911
v -4.492246 1.948430 -4.850563
v -4.492246 0.047005 -4.850563
v -4.492246 0.064014 -2.571414
v -4.492246 1.965439 -2.571414
v -4.492246 0.064014 -2.146762
v -4.492246 1.965439 -2.146762
v -4.916897 0.064014 -2.571414
v -4.916897 1.965439 -2.571414
v -4.916897 0.064014 -2.146762
v -4.916897 1.965439 -2.146762
v -4.440133 0.289952 -2.623528
v -4.440133 -0.238926 -2.623528
v -4.440133 0.289952 -2.094650
v -4.440133 -0.238926 -2.094650
v -4.969010 0.289952 -2.623528
v -4.969010 -0.238926 -2.623528
v -4.969010 0.289952 -2.094650
v -4.969010 -0.238926 -2.094650
v -4.969010 -0.255935 0.269542
v -4.969010 0.272943 0.269542
v -4.969010 -0.255935 -0.259336
v -4.969010 0.272943 -0.259336
v -4.440133 -0.255935 0.269542
v -4.440133 0.272943 0.269542
v -4.440133 -0.255935 -0.259336
v -4.440133 0.272943 -0.259336
v -4.916897 1.948430 0.217429
v -4.916897 0.047005 0.217429
v -4.916897 1.948430 -0.207223
v -4.916897 0.047005 -0.207223
v -4.492246 1.948430 0.217429
v -4.492246 0.047005 0.217429
v -4.492246 1.948430 -0.207223
v -4.492246 0.047005 -0.207223
v -4.492246 0.055510 2.173977
v -4.492246 1.956935 2.173977
v -4.492246 0.055510 2.598629
v -4.492246 1.956935 2.598629
v -4.916897 0.055510 2.173977
v -4.916897 1.956935 2.173977
v -4.916897 0.055510 2.598629
v -4.916897 1.956935 2.598629
v -4.440133 0.281447 2.121864
v -4.440133 -0.247430 2.121864
v -4.440133 0.281447 2.650742
v -4.440133 -0.247430 2.650742
v -4.969010 0.281447 2.121864
v -4.969010 -0.247430 2.121864
v -4.969010 0.281447 2.650742
v -4.969010 -0.247430 2.650742
vn 1.0000 -0.0000 -0.0000
vn -0.0000 -1.0000 -0.0000
vn -1.0000 -0.0000 -0.0000
vn -0.0000 -0.0000 -1.0000
vn -0.0000 -0.0000 1.0000
vn -0.0000 1.0000 -0.0000
vt -3.500574 0.992808
vt -3.500574 -0.007192
vt 4.499425 -0.007193
vt 4.499425 0.992808
vt -0.010417 1.992808
vt -0.010417 0.992808
vt 0.989582 0.992808
vt 0.989583 1.992808
vt -0.225300 0.656945
vt -0.225300 0.390016
vt 0.041630 0.390016
vt 0.041630 0.656945
vt 0.308559 0.390016
vt 0.308559 0.656945
vt 0.575488 0.390016
vt 0.575488 0.656945
vt 0.842417 0.390016
vt 0.842417 0.656945
vt 0.308559 0.923874
vt 0.575488 0.923874
vt 0.308559 0.123086
vt 0.575488 0.123086
vt -0.278342 0.986917
vt 0.073437 0.986917
vt 0.073437 0.003240
vt -0.278342 0.003240
vt 0.425215 0.986916
vt 0.425215 0.003240
vt 0.776994 0.986916
vt 0.776994 0.003240
vt 1.128773 0.986916
vt 1.128773 0.003240
vt 0.425215 1.970593
vt 0.776994 1.970593
vt 0.776994 -0.980436
vt 0.425215 -0.980436
s 0
f 5/1/1 6/2/1 4/3/1 3/4/1
f 2/5/2 5/6/2 3/7/2 1/8/2
f 7/9/3 8/10/3 10/11/3 9/12/3
f 9/12/4 10/11/4 14/13/4 13/14/4
f 13/14/1 14/13/1 12/15/1 11/16/1
f 11/16/5 12/15/5 8/17/5 7/18/5
f 9/19/2 13/14/2 11/16/2 7/20/2
f 14/13/6 10/21/6 8/22/6 12/15/6
f 15/23/3 17/24/3 18/25/3 16/26/3
f 17/24/4 21/27/4 22/28/4 18/25/4
f 21/27/1 19/29/1 20/30/1 22/28/1
f 19/29/5 15/31/5 16/32/5 20/30/5
f 17/33/6 15/34/6 19/29/6 21/27/6
f 22/28/2 20/30/2 16/35/2 18/36/2
f 23/9/3 24/10/3 26/11/3 25/12/3
f 25/12/4 26/11/4 30/13/4 29/14/4
f 29/14/1 30/13/1 28/15/1 27/16/1
f 27/16/5 28/15/5 24/17/5 23/18/5
f 25/19/2 29/14/2 27/16/2 23/20/2
f 30/13/6 26/21/6 24/22/6 28/15/6
f 31/23/3 33/24/3 34/25/3 32/26/3
f 33/24/4 37/27/4 38/28/4 34/25/4
f 37/27/1 35/29/1 36/30/1 38/28/1
f 35/29/5 31/31/5 32/32/5 36/30/5
f 33/33/6 31/34/6 35/29/6 37/27/6
f 38/28/2 36/30/2 32/35/2 34/36/2
f 39/28/2 41/30/2 45/35/2 43/36/2
f 44/33/6 46/34/6 42/29/6 40/27/6
f 42/29/5 46/31/5 45/32/5 41/30/5
f 40/27/1 42/29/1 41/30/1 39/28/1
f 44/24/4 40/27/4 39/28/4 43/25/4
f 46/23/3 44/24/3 43/25/3 45/26/3
f 47/13/6 51/21/6 53/22/6 49/15/6
f 52/19/2 48/14/2 50/16/2 54/20/2
f 50/16/5 49/15/5 53/17/5 54/18/5
f 48/14/1 47/13/1 49/15/1 50/16/1
f 52/12/4 51/11/4 47/13/4 48/14/4
f 54/9/3 53/10/3 51/11/3 52/12/3
f 55/9/3 56/10/3 58/11/3 57/12/3
f 57/12/4 58/11/4 62/13/4 61/14/4
f 61/14/1 62/13/1 60/15/1 59/16/1
f 59/16/5 60/15/5 56/17/5 55/18/5
f 57/19/2 61/14/2 59/16/2 55/20/2
f 62/13/6 58/21/6 56/22/6 60/15/6
f 63/23/3 65/24/3 66/25/3 64/26/3
f 65/24/4 69/27/4 70/28/4 66/25/4
f 69/27/1 67/29/1 68/30/1 70/28/1
f 67/29/5 63/31/5 64/32/5 68/30/5
f 65/33/6 63/34/6 67/29/6 69/27/6
f 70/28/2 68/30/2 64/35/2 66/36/2
f 71/28/2 73/30/2 77/35/2 75/36/2
f 76/33/6 78/34/6 74/29/6 72/27/6
f 74/29/5 78/31/5 77/32/5 73/30/5
f 72/27/1 74/29/1 73/30/1 71/28/1
f 76/24/4 72/27/4 71/28/4 75/25/4
f 78/23/3 76/24/3 75/25/3 77/26/3
f 79/13/6 83/21/6 85/22/6 81/15/6
f 84/19/2 80/14/2 82/16/2 86/20/2
f 82/16/5 81/15/5 85/17/5 86/18/5
f 80/14/1 79/13/1 81/15/1 82/16/1
f 84/12/4 83/11/4 79/13/4 80/14/4
f 86/9/3 85/10/3 83/11/3 84/12/3
