# Blender 4.4.3
# www.blender.org
o Cube.001
v -4.580997 -0.241496 4.682240
v -4.580997 1.817170 4.682240
v -4.580997 -0.241496 -4.823912
v -4.580997 1.817170 -4.823912
v -4.969010 -0.264439 4.887368
v -4.969010 0.264439 4.887368
v -4.969010 -0.264439 4.358491
v -4.969010 0.264439 4.358491
v -4.440133 -0.264439 4.887368
v -4.440133 0.264439 4.887368
v -4.440133 -0.264439 4.358491
v -4.440133 0.264439 4.358491
v -4.916897 1.939926 4.835256
v -4.916897 0.038501 4.835256
v -4.916897 1.939926 4.410604
v -4.916897 0.038501 4.410604
v -4.492246 1.939926 4.835256
v -4.492246 0.038501 4.835256
v -4.492246 1.939926 4.410604
v -4.492246 0.038501 4.410604
v -4.969010 -0.255935 -4.373798
v -4.969010 0.272943 -4.373798
v -4.969010 -0.255935 -4.902677
v -4.969010 0.272943 -4.902677
v -4.440133 -0.255935 -4.373798
v -4.440133 0.272943 -4.373798
v -4.440133 -0.255935 -4.902677
v -4.440133 0.272943 -4.902677
v -4.916897 1.948430 -4.425911
v -4.916897 0.047005 -4.425911
v -4.916897 1.948430 -4.850563
v -4.916897 0.047005 -4.850563
v -4.492246 1.948430 -4.425911
v -4.492246 0.047005 -4.425911
v -4.492246 1.948430 -4.850563
v -4.492246 0.047005 -4.850563
v -4.492246 0.064014 -2.571414
v -4.492246 1.965439 -2.571414
v -4.492246 0.064014 -2.146762
v -4.492246 1.965439 -2.146762
v -4.916897 0.064014 -2.571414
v -4.916897 1.965439 -2.571414
v -4.916897 0.064014 -2.146762
v -4.916897 1.965439 -2.146762
v -4.440133 0.289952 -2.623528
v -4.440133 -0.238926 -2.623528
v -4.440133 0.289952 -2.094650
v -4.440133 -0.238926 -2.094650
v -4.969010 0.289952 -2.623528
v -4.969010 -0.238926 -2.623528
v -4.969010 0.289952 -2.094650
v -4.969010 -0.238926 -2.094650
v -4.969010 -0.255935 0.269542
v -4.969010 0.272943 0.269542
v -4.969010 -0.255935 -0.259336
v -4.969010 0.272943 -0.259336
v -4.440133 -0.255935 0.269542
v -4.440133 0.272943 0.269542
v -4.440133 -0.255935 -0.259336
v -4.440133 0.272943 -0.259336
v -4.916897 1.948430 0.217429
v -4.916897 0.047005 0.217429
v -4.916897 1.948430 -0.207223
v -4.916897 0.047005 -0.207223
v -4.492246 1.948430 0.217429
v -4.492246 0.047005 0.217429
v -4.492246 1.948430 -0.207223
v -4.492246 0.047005 -0.207223
v -4.492246 0.055510 2.173977
v -4.492246 1.956935 2.173977
v -4.492246 0.055510 2.598629
v -4.492246 1.956935 2.598629
v -4.916897 0.055510 2.173977
v -4.916897 1.956935 2.173977
v -4.916897 0.055510 2.598629
v -4.916897 1.956935 2.598629
v -4.440133 0.281447 2.121864
v -4.440133 -0.247430 2.121864
v -4.440133 0.281447 2.650742
v -4.440133 -0.247430 2.650742
v -4.969010 0.281447 2.121864
v -4.969010 -0.247430 2.121864
v -4.969010 0.281447 2.650742
v -4.969010 -0.247430 2.650742
v -1.842023 -0.241496 4.682240
v -1.842023 1.817170 4.682240
v -2.296166 -0.264439 4.887368
v -2.296166 0.264439 4.887368
v -2.296166 -0.264439 4.358491
v -2.296166 0.264439 4.358491
v -1.767289 -0.264439 4.887368
v -1.767289 0.264439 4.887368
v -1.767289 -0.264439 4.358491
v -1.767289 0.264439 4.358491
v -2.244053 1.939926 4.835256
v -2.244053 0.038501 4.835256
v -2.244053 1.939926 4.410604
v -2.244053 0.038501 4.410604
v -1.819402 1.939926 4.835256
v -1.819402 0.038501 4.835256
v -1.819402 1.939926 4.410604
v -1.819402 0.038501 4.410604
vn 1.0000 -0.0000 -0.0000
vn -1.0000 -0.0000 -0.0000
vn -0.0000 -0.0000 -1.0000
vn -0.0000 -0.0000 1.0000
vn -0.0000 -1.0000 -0.0000
vn -0.0000 1.0000 -0.0000
vt 0.002753 0.988708
vt 0.002753 0.865680
vt 0.986984 0.865680
vt 0.986984 0.988708
vt 0.008890 0.069282
vt 0.008890 0.035916
vt 0.042256 0.035916
vt 0.042256 0.069282
vt 0.075622 0.035916
vt 0.075622 0.069282
vt 0.108988 0.035916
vt 0.108988 0.069282
vt 0.142354 0.035916
vt 0.142354 0.069282
vt 0.075622 0.102648
vt 0.108988 0.102648
vt 0.075622 0.002550
vt 0.108988 0.002550
vt 0.814531 0.385432
vt 0.858503 0.385432
vt 0.858503 0.262473
vt 0.814531 0.262473
vt 0.902476 0.385432
vt 0.902476 0.262473
vt 0.946448 0.385432
vt 0.946448 0.262473
vt 0.990420 0.385432
vt 0.990420 0.262473
vt 0.902476 0.508392
vt 0.946448 0.508392
vt 0.946448 0.139513
vt 0.902476 0.139513
vt 0.167314 0.078444
vt 0.167314 0.045078
vt 0.200680 0.045078
vt 0.200680 0.078444
vt 0.234046 0.045078
vt 0.234046 0.078444
vt 0.267412 0.045078
vt 0.267412 0.078444
vt 0.300778 0.045078
vt 0.300778 0.078444
vt 0.234046 0.111810
vt 0.267412 0.111810
vt 0.234046 0.011712
vt 0.267412 0.011712
vt 0.628993 0.385421
vt 0.672965 0.385421
vt 0.672965 0.262461
vt 0.628993 0.262461
vt 0.716937 0.385421
vt 0.716937 0.262461
vt 0.760910 0.385421
vt 0.760910 0.262461
vt 0.804882 0.385421
vt 0.804882 0.262461
vt 0.716937 0.508381
vt 0.760910 0.508381
vt 0.760910 0.139502
vt 0.716937 0.139502
vt 0.526318 0.262473
vt 0.570291 0.262473
vt 0.570291 0.139513
vt 0.526318 0.139513
vt 0.526318 0.508392
vt 0.570291 0.508392
vt 0.570291 0.385432
vt 0.526318 0.385432
vt 0.614263 0.385432
vt 0.614263 0.262473
vt 0.482346 0.385432
vt 0.482346 0.262473
vt 0.438374 0.385432
vt 0.438374 0.262473
vt 0.384427 0.045078
vt 0.384427 0.011712
vt 0.417793 0.011712
vt 0.417793 0.045078
vt 0.384427 0.111810
vt 0.384427 0.078444
vt 0.417793 0.078444
vt 0.417793 0.111810
vt 0.451159 0.045078
vt 0.451159 0.078444
vt 0.351061 0.078444
vt 0.351061 0.045078
vt 0.317695 0.078444
vt 0.317695 0.045078
vt 0.495418 0.078444
vt 0.495418 0.045078
vt 0.528784 0.045078
vt 0.528784 0.078444
vt 0.562150 0.045078
vt 0.562150 0.078444
vt 0.595517 0.045078
vt 0.595517 0.078444
vt 0.628883 0.045078
vt 0.628883 0.078444
vt 0.562150 0.111810
vt 0.595517 0.111810
vt 0.562150 0.011712
vt 0.595517 0.011712
vt 0.252927 0.385421
vt 0.296899 0.385421
vt 0.296899 0.262461
vt 0.252927 0.262461
vt 0.340871 0.385421
vt 0.340871 0.262461
vt 0.384844 0.385421
vt 0.384844 0.262461
vt 0.428816 0.385421
vt 0.428816 0.262461
vt 0.340871 0.508381
vt 0.384844 0.508381
vt 0.384844 0.139502
vt 0.340871 0.139502
vt 0.150161 0.262473
vt 0.194133 0.262473
vt 0.194133 0.139513
vt 0.150161 0.139513
vt 0.150161 0.508392
vt 0.194133 0.508392
vt 0.194133 0.385432
vt 0.150161 0.385432
vt 0.238106 0.385432
vt 0.238106 0.262473
vt 0.106189 0.385432
vt 0.106189 0.262473
vt 0.062216 0.385432
vt 0.062216 0.262473
vt 0.083665 0.787870
vt 0.083665 0.754504
vt 0.117031 0.754504
vt 0.117031 0.787870
vt 0.083665 0.854602
vt 0.083665 0.821236
vt 0.117031 0.821236
vt 0.117031 0.854602
vt 0.150397 0.787870
vt 0.150397 0.821236
vt 0.050299 0.821236
vt 0.050299 0.787870
vt 0.016933 0.821236
vt 0.016933 0.787870
vt 0.993667 0.001168
vt 0.993667 0.127134
vt 0.743667 0.127135
vt 0.743667 0.001168
vt 0.180985 0.816679
vt 0.180985 0.783313
vt 0.214351 0.783313
vt 0.214351 0.816679
vt 0.247717 0.783313
vt 0.247717 0.816679
vt 0.281083 0.783313
vt 0.281083 0.816679
vt 0.314449 0.783313
vt 0.314449 0.816679
vt 0.247717 0.850045
vt 0.281083 0.850045
vt 0.247717 0.749947
vt 0.281083 0.749947
vt 0.730309 0.648303
vt 0.774282 0.648303
vt 0.774282 0.525344
vt 0.730309 0.525344
vt 0.818254 0.648303
vt 0.818254 0.525344
vt 0.862226 0.648303
vt 0.862226 0.525344
vt 0.906198 0.648303
vt 0.906198 0.525344
vt 0.818254 0.771263
vt 0.862226 0.771263
vt 0.862226 0.402384
vt 0.818254 0.402384
s 0
f 3/1/1 4/2/1 2/3/1 1/4/1
f 5/5/2 6/6/2 8/7/2 7/8/2
f 7/8/3 8/7/3 12/9/3 11/10/3
f 11/10/1 12/9/1 10/11/1 9/12/1
f 9/12/4 10/11/4 6/13/4 5/14/4
f 7/15/5 11/10/5 9/12/5 5/16/5
f 12/9/6 8/17/6 6/18/6 10/11/6
f 13/19/2 15/20/2 16/21/2 14/22/2
f 15/20/3 19/23/3 20/24/3 16/21/3
f 19/23/1 17/25/1 18/26/1 20/24/1
f 17/25/4 13/27/4 14/28/4 18/26/4
f 15/29/6 13/30/6 17/25/6 19/23/6
f 20/24/5 18/26/5 14/31/5 16/32/5
f 21/33/2 22/34/2 24/35/2 23/36/2
f 23/36/3 24/35/3 28/37/3 27/38/3
f 27/38/1 28/37/1 26/39/1 25/40/1
f 25/40/4 26/39/4 22/41/4 21/42/4
f 23/43/5 27/38/5 25/40/5 21/44/5
f 28/37/6 24/45/6 22/46/6 26/39/6
f 29/47/2 31/48/2 32/49/2 30/50/2
f 31/48/3 35/51/3 36/52/3 32/49/3
f 35/51/1 33/53/1 34/54/1 36/52/1
f 33/53/4 29/55/4 30/56/4 34/54/4
f 31/57/6 29/58/6 33/53/6 35/51/6
f 36/52/5 34/54/5 30/59/5 32/60/5
f 37/61/5 39/62/5 43/63/5 41/64/5
f 42/65/6 44/66/6 40/67/6 38/68/6
f 40/67/4 44/69/4 43/70/4 39/62/4
f 38/68/1 40/67/1 39/62/1 37/61/1
f 42/71/3 38/68/3 37/61/3 41/72/3
f 44/73/2 42/71/2 41/72/2 43/74/2
f 45/75/6 49/76/6 51/77/6 47/78/6
f 50/79/5 46/80/5 48/81/5 52/82/5
f 48/81/4 47/78/4 51/83/4 52/84/4
f 46/80/1 45/75/1 47/78/1 48/81/1
f 50/85/3 49/86/3 45/75/3 46/80/3
f 52/87/2 51/88/2 49/86/2 50/85/2
f 53/89/2 54/90/2 56/91/2 55/92/2
f 55/92/3 56/91/3 60/93/3 59/94/3
f 59/94/1 60/93/1 58/95/1 57/96/1
f 57/96/4 58/95/4 54/97/4 53/98/4
f 55/99/5 59/94/5 57/96/5 53/100/5
f 60/93/6 56/101/6 54/102/6 58/95/6
f 61/103/2 63/104/2 64/105/2 62/106/2
f 63/104/3 67/107/3 68/108/3 64/105/3
f 67/107/1 65/109/1 66/110/1 68/108/1
f 65/109/4 61/111/4 62/112/4 66/110/4
f 63/113/6 61/114/6 65/109/6 67/107/6
f 68/108/5 66/110/5 62/115/5 64/116/5
f 69/117/5 71/118/5 75/119/5 73/120/5
f 74/121/6 76/122/6 72/123/6 70/124/6
f 72/123/4 76/125/4 75/126/4 71/118/4
f 70/124/1 72/123/1 71/118/1 69/117/1
f 74/127/3 70/124/3 69/117/3 73/128/3
f 76/129/2 74/127/2 73/128/2 75/130/2
f 77/131/6 81/132/6 83/133/6 79/134/6
f 82/135/5 78/136/5 80/137/5 84/138/5
f 80/137/4 79/134/4 83/139/4 84/140/4
f 78/136/1 77/131/1 79/134/1 80/137/1
f 82/141/3 81/142/3 77/131/3 78/136/3
f 84/143/2 83/144/2 81/142/2 82/141/2
f 1/145/3 2/146/3 86/147/3 85/148/3
f 87/149/2 88/150/2 90/151/2 89/152/2
f 89/152/3 90/151/3 94/153/3 93/154/3
f 93/154/1 94/153/1 92/155/1 91/156/1
f 91/156/4 92/155/4 88/157/4 87/158/4
f 89/159/5 93/154/5 91/156/5 87/160/5
f 94/153/6 90/161/6 88/162/6 92/155/6
f 95/163/2 97/164/2 98/165/2 96/166/2
f 97/164/3 101/167/3 102/168/3 98/165/3
f 101/167/1 99/169/1 100/170/1 102/168/1
f 99/169/4 95/171/4 96/172/4 100/170/4
f 97/173/6 95/174/6 99/169/6 101/167/6
f 102/168/5 100/170/5 96/175/5 98/176/5
