# Blender 4.4.3
# www.blender.org
o Cube
v 4.580996 -0.241496 -4.823913
v 4.580996 1.817170 -4.823913
v 4.580999 -0.241496 4.682240
v 4.580999 1.817170 4.682240
v 4.969008 -0.264439 -4.887369
v 4.969008 0.264439 -4.887369
v 4.969008 -0.264439 -4.358491
v 4.969008 0.264439 -4.358491
v 4.440131 -0.264439 -4.887369
v 4.440131 0.264439 -4.887369
v 4.440131 -0.264439 -4.358491
v 4.440131 0.264439 -4.358491
v 4.916895 1.939926 -4.835257
v 4.916895 0.038501 -4.835257
v 4.916896 1.939926 -4.410604
v 4.916896 0.038501 -4.410604
v 4.492244 1.939926 -4.835257
v 4.492244 0.038501 -4.835257
v 4.492245 1.939926 -4.410604
v 4.492245 0.038501 -4.410604
v 4.969011 -0.255935 4.373797
v 4.969011 0.272943 4.373797
v 4.969011 -0.255935 4.902676
v 4.969011 0.272943 4.902676
v 4.440135 -0.255935 4.373797
v 4.440135 0.272943 4.373797
v 4.440135 -0.255935 4.902676
v 4.440135 0.272943 4.902676
v 4.916899 1.948430 4.425911
v 4.916899 0.047005 4.425911
v 4.916900 1.948430 4.850562
v 4.916900 0.047005 4.850562
v 4.492247 1.948430 4.425911
v 4.492247 0.047005 4.425911
v 4.492248 1.948430 4.850562
v 4.492248 0.047005 4.850562
v 4.492247 0.064014 2.571414
v 4.492247 1.965439 2.571414
v 4.492247 0.064014 2.146762
v 4.492247 1.965439 2.146762
v 4.916899 0.064014 2.571414
v 4.916899 1.965439 2.571414
v 4.916899 0.064014 2.146762
v 4.916899 1.965439 2.146762
v 4.440134 0.289952 2.623528
v 4.440134 -0.238926 2.623528
v 4.440134 0.289952 2.094650
v 4.440134 -0.238926 2.094650
v 4.969011 0.289952 2.623528
v 4.969011 -0.238926 2.623528
v 4.969011 0.289952 2.094649
v 4.969011 -0.238926 2.094649
v 4.969010 -0.255935 -0.269542
v 4.969010 0.272943 -0.269542
v 4.969010 -0.255935 0.259336
v 4.969010 0.272943 0.259336
v 4.440132 -0.255935 -0.269542
v 4.440132 0.272943 -0.269542
v 4.440132 -0.255935 0.259336
v 4.440132 0.272943 0.259336
v 4.916897 1.948430 -0.217429
v 4.916897 0.047005 -0.217429
v 4.916897 1.948430 0.207222
v 4.916897 0.047005 0.207222
v 4.492246 1.948430 -0.217429
v 4.492246 0.047005 -0.217429
v 4.492246 1.948430 0.207223
v 4.492246 0.047005 0.207223
v 4.492245 0.055510 -2.173977
v 4.492245 1.956935 -2.173977
v 4.492245 0.055510 -2.598629
v 4.492245 1.956935 -2.598629
v 4.916896 0.055510 -2.173978
v 4.916896 1.956935 -2.173978
v 4.916896 0.055510 -2.598629
v 4.916896 1.956935 -2.598629
v 4.440131 0.281447 -2.121864
v 4.440131 -0.247430 -2.121864
v 4.440131 0.281447 -2.650742
v 4.440131 -0.247430 -2.650742
v 4.969009 0.281447 -2.121864
v 4.969009 -0.247430 -2.121864
v 4.969009 0.281447 -2.650742
v 4.969009 -0.247430 -2.650742
v 1.212376 -0.241496 4.682240
v 1.212376 1.817170 4.682240
v 1.568906 -0.255935 4.373797
v 1.568906 0.272943 4.373797
v 1.568906 -0.255935 4.902676
v 1.568906 0.272943 4.902676
v 1.040028 -0.255935 4.373797
v 1.040028 0.272943 4.373797
v 1.040028 -0.255935 4.902676
v 1.040028 0.272943 4.902676
v 1.516792 1.948430 4.425911
v 1.516792 0.047005 4.425911
v 1.516792 1.948430 4.850562
v 1.516792 0.047005 4.850562
v 1.092141 1.948430 4.425911
v 1.092141 0.047005 4.425911
v 1.092141 1.948430 4.850562
v 1.092141 0.047005 4.850562
v 4.580997 -0.241496 -2.922682
v 4.580997 -0.241496 -1.021452
v 4.580998 -0.241496 0.879779
v 4.580998 -0.241496 2.781009
v 4.580998 1.817170 2.781009
v 4.580997 1.817170 0.879779
v 4.580997 1.817170 -1.021452
v 4.580997 1.817170 -2.922682
vn 1.0000 -0.0000 -0.0000
vn -0.0000 -0.0000 1.0000
vn -1.0000 -0.0000 -0.0000
vn -0.0000 -0.0000 -1.0000
vn -0.0000 -1.0000 -0.0000
vn -0.0000 1.0000 -0.0000
vt 0.641273 0.175154
vt 0.641273 0.141788
vt 0.674639 0.141788
vt 0.674639 0.175154
vt 0.708005 0.141788
vt 0.708005 0.175154
vt 0.741372 0.141788
vt 0.741372 0.175154
vt 0.774738 0.141788
vt 0.774738 0.175154
vt 0.708005 0.208520
vt 0.741372 0.208520
vt 0.708005 0.108422
vt 0.741372 0.108422
vt 0.625218 0.708756
vt 0.669190 0.708756
vt 0.669190 0.585797
vt 0.625218 0.585797
vt 0.713162 0.708756
vt 0.713162 0.585797
vt 0.757135 0.708756
vt 0.757135 0.585797
vt 0.801107 0.708756
vt 0.801107 0.585797
vt 0.713162 0.831716
vt 0.757135 0.831716
vt 0.757135 0.462837
vt 0.713162 0.462837
vt 0.494957 0.180543
vt 0.494957 0.147177
vt 0.528323 0.147177
vt 0.528323 0.180543
vt 0.561689 0.147177
vt 0.561689 0.180543
vt 0.595055 0.147177
vt 0.595055 0.180543
vt 0.628422 0.147177
vt 0.628422 0.180543
vt 0.561689 0.213909
vt 0.595055 0.213909
vt 0.561689 0.113810
vt 0.595055 0.113810
vt 0.818276 0.701189
vt 0.862248 0.701189
vt 0.862248 0.578229
vt 0.818276 0.578229
vt 0.906220 0.701188
vt 0.906220 0.578229
vt 0.950193 0.701188
vt 0.950193 0.578229
vt 0.994165 0.701188
vt 0.994165 0.578229
vt 0.906220 0.824148
vt 0.950193 0.824148
vt 0.950193 0.455269
vt 0.906220 0.455269
vt 0.517491 0.580028
vt 0.561464 0.580028
vt 0.561464 0.457068
vt 0.517491 0.457068
vt 0.517491 0.825947
vt 0.561464 0.825947
vt 0.561464 0.702987
vt 0.517491 0.702987
vt 0.605436 0.702987
vt 0.605436 0.580028
vt 0.473519 0.702987
vt 0.473519 0.580028
vt 0.429547 0.702987
vt 0.429547 0.580028
vt 0.395187 0.158659
vt 0.395187 0.125293
vt 0.428553 0.125293
vt 0.428553 0.158659
vt 0.395187 0.225392
vt 0.395187 0.192026
vt 0.428553 0.192026
vt 0.428553 0.225392
vt 0.461919 0.158659
vt 0.461919 0.192026
vt 0.361821 0.192026
vt 0.361821 0.158659
vt 0.328454 0.192026
vt 0.328454 0.158659
vt 0.161952 0.192026
vt 0.161952 0.158659
vt 0.195318 0.158659
vt 0.195318 0.192026
vt 0.228684 0.158659
vt 0.228684 0.192026
vt 0.262050 0.158659
vt 0.262050 0.192026
vt 0.295416 0.158659
vt 0.295416 0.192026
vt 0.228684 0.225392
vt 0.262050 0.225392
vt 0.228684 0.125293
vt 0.262050 0.125293
vt 0.229038 0.702987
vt 0.273011 0.702987
vt 0.273011 0.580028
vt 0.229038 0.580028
vt 0.316983 0.702987
vt 0.316983 0.580028
vt 0.360955 0.702987
vt 0.360955 0.580028
vt 0.404928 0.702987
vt 0.404928 0.580028
vt 0.316983 0.825947
vt 0.360955 0.825947
vt 0.360955 0.457068
vt 0.316983 0.457068
vt 0.116475 0.580028
vt 0.160447 0.580028
vt 0.160447 0.457068
vt 0.116475 0.457068
vt 0.116475 0.825947
vt 0.160447 0.825947
vt 0.160447 0.702987
vt 0.116475 0.702987
vt 0.204420 0.702987
vt 0.204420 0.580028
vt 0.072503 0.702987
vt 0.072503 0.580028
vt 0.028530 0.702987
vt 0.028530 0.580028
vt 0.222943 0.296455
vt 0.222943 0.263089
vt 0.256309 0.263089
vt 0.256309 0.296455
vt 0.222943 0.363187
vt 0.222943 0.329821
vt 0.256309 0.329821
vt 0.256309 0.363187
vt 0.289675 0.296455
vt 0.289675 0.329821
vt 0.189577 0.329821
vt 0.189577 0.296455
vt 0.156210 0.329821
vt 0.156210 0.296455
vt 0.458229 0.086892
vt 0.458229 0.007466
vt 0.735837 0.007465
vt 0.735837 0.086892
vt 0.322713 0.335562
vt 0.322713 0.302196
vt 0.356079 0.302196
vt 0.356079 0.335562
vt 0.389445 0.302196
vt 0.389445 0.335562
vt 0.422811 0.302196
vt 0.422811 0.335562
vt 0.456178 0.302196
vt 0.456178 0.335562
vt 0.389445 0.368928
vt 0.422811 0.368928
vt 0.389445 0.268830
vt 0.422811 0.268830
vt 0.815744 0.315986
vt 0.859716 0.315986
vt 0.859716 0.193026
vt 0.815744 0.193026
vt 0.903688 0.315986
vt 0.903688 0.193026
vt 0.947661 0.315986
vt 0.947661 0.193026
vt 0.991633 0.315986
vt 0.991633 0.193026
vt 0.903688 0.438945
vt 0.947661 0.438945
vt 0.947661 0.070067
vt 0.903688 0.070067
vt 0.401306 0.869130
vt 0.401306 0.994212
vt 0.203395 0.994212
vt 0.203395 0.869130
vt 0.797128 0.869130
vt 0.797128 0.994212
vt 0.599217 0.994212
vt 0.599217 0.869130
vt 0.995039 0.869130
vt 0.995039 0.994212
vt 0.797127 0.994212
vt 0.797127 0.869130
vt 0.599217 0.869130
vt 0.599217 0.994212
vt 0.401306 0.994212
vt 0.401306 0.869130
vt 0.203395 0.869130
vt 0.005484 0.994212
vt 0.005484 0.869130
s 0
f 5/1/1 6/2/1 8/3/1 7/4/1
f 7/4/2 8/3/2 12/5/2 11/6/2
f 11/6/3 12/5/3 10/7/3 9/8/3
f 9/8/4 10/7/4 6/9/4 5/10/4
f 7/11/5 11/6/5 9/8/5 5/12/5
f 12/5/6 8/13/6 6/14/6 10/7/6
f 13/15/1 15/16/1 16/17/1 14/18/1
f 15/16/2 19/19/2 20/20/2 16/17/2
f 19/19/3 17/21/3 18/22/3 20/20/3
f 17/21/4 13/23/4 14/24/4 18/22/4
f 15/25/6 13/26/6 17/21/6 19/19/6
f 20/20/5 18/22/5 14/27/5 16/28/5
f 21/29/1 22/30/1 24/31/1 23/32/1
f 23/32/2 24/31/2 28/33/2 27/34/2
f 27/34/3 28/33/3 26/35/3 25/36/3
f 25/36/4 26/35/4 22/37/4 21/38/4
f 23/39/5 27/34/5 25/36/5 21/40/5
f 28/33/6 24/41/6 22/42/6 26/35/6
f 29/43/1 31/44/1 32/45/1 30/46/1
f 31/44/2 35/47/2 36/48/2 32/45/2
f 35/47/3 33/49/3 34/50/3 36/48/3
f 33/49/4 29/51/4 30/52/4 34/50/4
f 31/53/6 29/54/6 33/49/6 35/47/6
f 36/48/5 34/50/5 30/55/5 32/56/5
f 37/57/5 39/58/5 43/59/5 41/60/5
f 42/61/6 44/62/6 40/63/6 38/64/6
f 40/63/4 44/65/4 43/66/4 39/58/4
f 38/64/3 40/63/3 39/58/3 37/57/3
f 42/67/2 38/64/2 37/57/2 41/68/2
f 44/69/1 42/67/1 41/68/1 43/70/1
f 45/71/6 49/72/6 51/73/6 47/74/6
f 50/75/5 46/76/5 48/77/5 52/78/5
f 48/77/4 47/74/4 51/79/4 52/80/4
f 46/76/3 45/71/3 47/74/3 48/77/3
f 50/81/2 49/82/2 45/71/2 46/76/2
f 52/83/1 51/84/1 49/82/1 50/81/1
f 53/85/1 54/86/1 56/87/1 55/88/1
f 55/88/2 56/87/2 60/89/2 59/90/2
f 59/90/3 60/89/3 58/91/3 57/92/3
f 57/92/4 58/91/4 54/93/4 53/94/4
f 55/95/5 59/90/5 57/92/5 53/96/5
f 60/89/6 56/97/6 54/98/6 58/91/6
f 61/99/1 63/100/1 64/101/1 62/102/1
f 63/100/2 67/103/2 68/104/2 64/101/2
f 67/103/3 65/105/3 66/106/3 68/104/3
f 65/105/4 61/107/4 62/108/4 66/106/4
f 63/109/6 61/110/6 65/105/6 67/103/6
f 68/104/5 66/106/5 62/111/5 64/112/5
f 69/113/5 71/114/5 75/115/5 73/116/5
f 74/117/6 76/118/6 72/119/6 70/120/6
f 72/119/4 76/121/4 75/122/4 71/114/4
f 70/120/3 72/119/3 71/114/3 69/113/3
f 74/123/2 70/120/2 69/113/2 73/124/2
f 76/125/1 74/123/1 73/124/1 75/126/1
f 77/127/6 81/128/6 83/129/6 79/130/6
f 82/131/5 78/132/5 80/133/5 84/134/5
f 80/133/4 79/130/4 83/135/4 84/136/4
f 78/132/3 77/127/3 79/130/3 80/133/3
f 82/137/2 81/138/2 77/127/2 78/132/2
f 84/139/1 83/140/1 81/138/1 82/137/1
f 4/141/4 3/142/4 85/143/4 86/144/4
f 87/145/1 88/146/1 90/147/1 89/148/1
f 89/148/2 90/147/2 94/149/2 93/150/2
f 93/150/3 94/149/3 92/151/3 91/152/3
f 91/152/4 92/151/4 88/153/4 87/154/4
f 89/155/5 93/150/5 91/152/5 87/156/5
f 94/149/6 90/157/6 88/158/6 92/151/6
f 95/159/1 97/160/1 98/161/1 96/162/1
f 97/160/2 101/163/2 102/164/2 98/161/2
f 101/163/3 99/165/3 100/166/3 102/164/3
f 99/165/4 95/167/4 96/168/4 100/166/4
f 97/169/6 95/170/6 99/165/6 101/163/6
f 102/164/5 100/166/5 96/171/5 98/172/5
f 103/173/3 110/174/3 2/175/3 1/176/3
f 3/177/3 4/178/3 107/179/3 106/180/3
f 106/181/3 107/182/3 108/183/3 105/184/3
f 105/185/3 108/186/3 109/187/3 104/188/3
f 104/189/3 109/175/3 110/190/3 103/191/3
